<svg width="132" height="81" viewBox="0 0 132 81" fill="none" xmlns="http://www.w3.org/2000/svg">
    <circle cx="92" cy="5" r="76" fill="#F6F9FE"/>
    <g opacity="0.4">
        <path d="M20.6371 44.9469L15.9629 39.4702C15.145 39.7207 14.3531 39.9097 14.3531 39.9097C13.5343 40.1604 13.1715 38.9014 13.9908 38.6495C13.9908 38.6495 16.5129 37.9254 17.9722 37.3814C19.5255 36.8023 21.8593 35.7162 21.8593 35.7162C22.6423 35.3717 23.1754 36.5128 22.4105 36.9059C22.4105 36.9059 21.6395 37.2996 20.7639 37.6805L32.0768 51.6442L31.7149 46.143C31.747 43.9315 31.53 42.1915 31.0561 40.9194C30.372 39.083 29.2388 38.0585 28.3061 37.2798C27.0964 36.3373 26.0057 35.5657 25.5494 34.3406C25.0413 32.9769 25.6022 31.32 27.0623 30.7757C27.1269 30.7516 27.1912 30.7367 27.2577 30.7155C23.7132 29.2801 19.6444 29.1149 15.7775 30.5564C10.5891 32.4906 7.01753 36.852 5.86248 41.8748C6.21571 41.7559 6.54644 41.6398 6.82618 41.5356C8.37789 40.9571 10.7125 39.8707 10.7125 39.8707C11.4955 39.5262 12.0293 40.667 11.2637 41.0604C11.2637 41.0604 10.4943 41.4535 9.6163 41.8353L21.0168 55.9052L20.6371 44.9469Z" fill="#162B40"/>
        <path d="M6.46129 50.9413C8.6507 56.8188 13.9578 60.6272 19.8089 61.1864L5.49425 44.4176C5.35841 46.5723 5.65903 48.7877 6.46129 50.9413Z" fill="#162B40"/>
        <path d="M31.4607 57.5783C31.3974 57.5302 31.3355 57.4761 31.2786 57.4111L22.0547 46.6064L22.4227 61.2171C23.9 61.1139 25.3857 60.8016 26.8426 60.2584C28.5717 59.6129 30.1197 58.6955 31.4607 57.5783Z" fill="#162B40"/>
        <path d="M31.6882 33.4237C31.9275 33.8737 32.1538 34.3666 32.3575 34.9134C32.919 36.4206 33.2678 38.2195 33.2098 40.6539L33.559 55.4605C37.0161 51.2397 38.2019 45.3494 36.161 39.8705C35.199 37.2881 33.6345 35.1082 31.6882 33.4237Z" fill="#162B40"/>
    </g>
    <path d="M41.1479 35.2973C40.8922 35.1497 40.8202 34.8809 40.7973 34.5268L42.3832 26.4665C39.5027 23.7809 37.1369 20.5971 35.358 17.184L27.1958 16.5619C26.8909 16.4995 26.6353 16.3519 26.5633 16.0831L24.0914 6.58894C24.0193 6.32011 24.2161 5.97925 24.3997 5.85802L31.2426 1.2873C31.1618 -2.50875 31.6187 -6.44886 32.7706 -10.215L27.4162 -16.4877C27.2097 -16.7205 27.2721 -17.0253 27.3345 -17.3302L32.2543 -25.8516C32.4019 -26.1073 32.6708 -26.1793 33.0248 -26.2021L41.0851 -24.6162C43.7708 -27.4968 46.9545 -29.8626 50.3676 -31.6415L50.9898 -39.8037C51.0522 -40.1085 51.1998 -40.3642 51.4686 -40.4362L60.9627 -42.9081C61.2315 -42.9801 61.5724 -42.7833 61.6936 -42.5997L66.2643 -35.7569C70.0604 -35.8376 74.0005 -35.3807 77.7666 -34.2289L84.0393 -39.5833C84.2721 -39.7897 84.577 -39.7274 84.8818 -39.665L93.4033 -34.7451C93.6589 -34.5975 93.7309 -34.3287 93.7538 -33.9747L92.1679 -25.9144C95.0484 -23.2287 97.4142 -20.0449 99.1931 -16.6319L107.355 -16.0097C107.66 -15.9473 107.916 -15.7997 107.988 -15.5309L110.46 -6.03677C110.532 -5.76795 110.335 -5.42709 110.151 -5.30586L103.309 -0.735128C103.389 3.06092 102.932 7.00103 101.781 10.7672L107.135 17.0399C107.341 17.2727 107.279 17.5775 107.217 17.8823L102.297 26.4038C102.149 26.6594 101.88 26.7315 101.526 26.7543L93.466 25.1684C90.7803 28.049 87.5966 30.4147 84.1835 32.1936L83.5613 40.3559C83.4989 40.6607 83.3514 40.9163 83.0825 40.9884L73.5884 43.4603C73.3196 43.5323 72.9787 43.3355 72.8575 43.1519L68.2868 36.3091C64.4907 36.3898 60.5506 35.9329 56.7845 34.7811L50.5118 40.1355C50.279 40.3419 49.9741 40.2795 49.6693 40.2171L41.1479 35.2973ZM81.4877 15.4123C89.7609 7.57702 90.1486 -5.49257 82.3133 -13.7657C74.4781 -22.0388 61.4085 -22.4265 53.0862 -14.5061C44.8131 -6.67081 44.4254 6.39878 52.3458 14.7211C60.0958 22.945 73.2146 23.2475 81.4877 15.4123Z" fill="url(#paint0_linear_24_666)"/>
    <path d="M61.3119 25.2309C75.1151 28.4819 88.9856 20.0313 92.2436 6.22154C95.5838 -7.54069 87.0143 -21.3761 73.2586 -24.7095C59.4554 -27.9605 45.5849 -19.5099 42.3269 -5.70014C39.0689 8.10956 47.5087 21.9798 61.3119 25.2309ZM47.9045 -4.34527C50.4645 -15.0468 61.2045 -21.6839 71.9009 -19.1292C82.5974 -16.5746 89.226 -5.83483 86.6185 4.94896C84.0585 15.6505 73.3185 22.2876 62.5398 19.6854C51.9256 17.1783 45.3445 6.35623 47.9045 -4.34527Z" fill="url(#paint1_linear_24_666)"/>
    <defs>
        <linearGradient id="paint0_linear_24_666" x1="7.99947" y1="16.1591" x2="118.131" y2="-34.0701" gradientUnits="userSpaceOnUse">
            <stop offset="0.00114429" stop-color="#9EFFFF"/>
            <stop offset="1" stop-color="#3D59C9"/>
        </linearGradient>
        <linearGradient id="paint1_linear_24_666" x1="63.2476" y1="-27.4653" x2="51.7464" y2="30.0552" gradientUnits="userSpaceOnUse">
            <stop offset="0.00114429" stop-color="#4EFEC3"/>
            <stop offset="1" stop-color="#3D59C9"/>
        </linearGradient>
    </defs>
</svg>